HIERARCHY
ROOT Hips
{
	OFFSET 0.000000 121.760803 0.000000
	CHANNELS 6 Xposition Yposition Zposition Xrotation Yrotation Zrotation 
	JOINT Spine
	{
		OFFSET 0.072000 7.257294 -0.789700
		CHANNELS 3 Xrotation Yrotation Zrotation
		JOINT Spine1
		{
			OFFSET 0.000000 12.508769 -0.658067
			CHANNELS 3 Xrotation Yrotation Zrotation
			JOINT Spine1_split
			{
				OFFSET 0.000000 12.508769 -0.658067
				CHANNELS 3 Xrotation Yrotation Zrotation
				JOINT Spine2
				{
					OFFSET 0.000000 12.508769 -0.658067
					CHANNELS 3 Xrotation Yrotation Zrotation
					JOINT Neck
					{
						OFFSET 0.000000 14.033295 7.520400
						CHANNELS 3 Xrotation Yrotation Zrotation
						JOINT Head
						{
							OFFSET 0.000000 8.198502 5.703100
							CHANNELS 3 Xrotation Yrotation Zrotation
							JOINT HeadTop_End
							{
								OFFSET 0.000000 17.760803 13.332701
								CHANNELS 3 Xrotation Yrotation Zrotation
								End Site
								{
									OFFSET 0.000000 0.000000 0.000000
								}
							}
						}
					}
					JOINT LeftShoulder
					{
						OFFSET 6.292450 5.785301 -0.669000
						CHANNELS 3 Xrotation Yrotation Zrotation
						JOINT LeftShoulder_split
						{
							OFFSET 6.292450 5.785301 -0.669000
							CHANNELS 3 Xrotation Yrotation Zrotation
							JOINT LeftArm
							{
								OFFSET 13.907140 -6.093903 1.965100
								CHANNELS 3 Xrotation Yrotation Zrotation
								JOINT LeftForeArm
								{
									OFFSET 34.140198 0.000000 0.000000
									CHANNELS 3 Xrotation Yrotation Zrotation
									JOINT LeftHand
									{
										OFFSET 40.960209 0.000000 0.000000
										CHANNELS 3 Xrotation Yrotation Zrotation
										JOINT LeftHandThumb1
										{
											OFFSET 10.006996 -7.170425 9.573125
											CHANNELS 3 Xrotation Yrotation Zrotation
											JOINT LeftHandThumb2
											{
												OFFSET 1.835007 -1.059448 1.059443
												CHANNELS 3 Xrotation Yrotation Zrotation
												JOINT LeftHandThumb3
												{
													OFFSET 2.112267 -1.219513 1.219518
													CHANNELS 3 Xrotation Yrotation Zrotation
													JOINT LeftHandThumb4
													{
														OFFSET 4.843811 -2.796570 2.796576
														CHANNELS 3 Xrotation Yrotation Zrotation
														End Site
														{
															OFFSET 0.000000 0.000000 0.000000
														}
													}
												}
											}
										}
										JOINT LeftHandIndex1
										{
											OFFSET 18.389847 -0.922348 4.596882
											CHANNELS 3 Xrotation Yrotation Zrotation
											JOINT LeftHandIndex2
											{
												OFFSET 4.711273 0.000000 0.000000
												CHANNELS 3 Xrotation Yrotation Zrotation
												JOINT LeftHandIndex3
												{
													OFFSET 2.886131 0.000000 0.000000
													CHANNELS 3 Xrotation Yrotation Zrotation
													JOINT LeftHandIndex4
													{
														OFFSET 6.145912 0.000000 0.000000
														CHANNELS 3 Xrotation Yrotation Zrotation
														End Site
														{
															OFFSET 0.000000 0.000000 0.000000
														}
													}
												}
											}
										}
										JOINT LeftHandMiddle1
										{
											OFFSET 18.013008 0.000000 0.000000
											CHANNELS 3 Xrotation Yrotation Zrotation
											JOINT LeftHandMiddle2
											{
												OFFSET 4.946693 0.000000 0.000000
												CHANNELS 3 Xrotation Yrotation Zrotation
												JOINT LeftHandMiddle3
												{
													OFFSET 3.342232 0.000000 0.000000
													CHANNELS 3 Xrotation Yrotation Zrotation
													JOINT LeftHandMiddle4
													{
														OFFSET 4.461754 0.000000 0.000000
														CHANNELS 3 Xrotation Yrotation Zrotation
														End Site
														{
															OFFSET 0.000000 0.000000 0.000000
														}
													}
												}
											}
										}
										JOINT LeftHandRing1
										{
											OFFSET 15.849892 -0.102921 -4.126150
											CHANNELS 3 Xrotation Yrotation Zrotation
											JOINT LeftHandRing2
											{
												OFFSET 3.527054 0.000000 0.000000
												CHANNELS 3 Xrotation Yrotation Zrotation
												JOINT LeftHandRing3
												{
													OFFSET 2.961098 0.000000 0.000000
													CHANNELS 3 Xrotation Yrotation Zrotation
													JOINT LeftHandRing4
													{
														OFFSET 4.927200 0.000000 0.000000
														CHANNELS 3 Xrotation Yrotation Zrotation
														End Site
														{
															OFFSET 0.000000 0.000000 0.000000
														}
													}
												}
											}
										}
										JOINT LeftHandPinky1
										{
											OFFSET 12.791824 -0.832031 -6.799156
											CHANNELS 3 Xrotation Yrotation Zrotation
											JOINT LeftHandPinky2
											{
												OFFSET 3.327133 0.000000 0.000000
												CHANNELS 3 Xrotation Yrotation Zrotation
												JOINT LeftHandPinky3
												{
													OFFSET 3.014900 0.000000 0.000000
													CHANNELS 3 Xrotation Yrotation Zrotation
													JOINT LeftHandPinky4
													{
														OFFSET 5.847786 0.000000 0.000000
														CHANNELS 3 Xrotation Yrotation Zrotation
														End Site
														{
															OFFSET 0.000000 0.000000 0.000000
														}
													}
												}
											}
										}
									}
								}
							}
						}
					}
					JOINT RightShoulder
					{
						OFFSET -6.292450 5.785301 -0.669000
						CHANNELS 3 Xrotation Yrotation Zrotation
						JOINT RightShoulder_split
						{
							OFFSET -6.292450 5.785301 -0.669000
							CHANNELS 3 Xrotation Yrotation Zrotation
							JOINT RightArm
							{
								OFFSET -13.907140 -6.093903 1.965100
								CHANNELS 3 Xrotation Yrotation Zrotation
								JOINT RightForeArm
								{
									OFFSET -34.140198 0.000000 0.000000
									CHANNELS 3 Xrotation Yrotation Zrotation
									JOINT RightHand
									{
										OFFSET -40.960209 0.000000 0.000000
										CHANNELS 3 Xrotation Yrotation Zrotation
										JOINT RightHandThumb1
										{
											OFFSET -10.007050 -7.170456 9.573117
											CHANNELS 3 Xrotation Yrotation Zrotation
											JOINT RightHandThumb2
											{
												OFFSET -1.835007 -1.059448 1.059443
												CHANNELS 3 Xrotation Yrotation Zrotation
												JOINT RightHandThumb3
												{
													OFFSET -2.112267 -1.219513 1.219518
													CHANNELS 3 Xrotation Yrotation Zrotation
													JOINT RightHandThumb4
													{
														OFFSET -4.843834 -2.796585 2.796590
														CHANNELS 3 Xrotation Yrotation Zrotation
														End Site
														{
															OFFSET 0.000000 0.000000 0.000000
														}
													}
												}
											}
										}
										JOINT RightHandIndex1
										{
											OFFSET -18.389870 -0.922424 4.596786
											CHANNELS 3 Xrotation Yrotation Zrotation
											JOINT RightHandIndex2
											{
												OFFSET -4.711273 0.000000 0.000000
												CHANNELS 3 Xrotation Yrotation Zrotation
												JOINT RightHandIndex3
												{
													OFFSET -2.886131 0.000000 0.000000
													CHANNELS 3 Xrotation Yrotation Zrotation
													JOINT RightHandIndex4
													{
														OFFSET -6.145920 0.000000 0.000000
														CHANNELS 3 Xrotation Yrotation Zrotation
														End Site
														{
															OFFSET 0.000000 0.000000 0.000000
														}
													}
												}
											}
										}
										JOINT RightHandMiddle1
										{
											OFFSET -18.013008 0.000000 0.000000
											CHANNELS 3 Xrotation Yrotation Zrotation
											JOINT RightHandMiddle2
											{
												OFFSET -4.946693 0.000000 0.000000
												CHANNELS 3 Xrotation Yrotation Zrotation
												JOINT RightHandMiddle3
												{
													OFFSET -3.342232 0.000000 0.000000
													CHANNELS 3 Xrotation Yrotation Zrotation
													JOINT RightHandMiddle4
													{
														OFFSET -4.461754 0.000000 0.000000
														CHANNELS 3 Xrotation Yrotation Zrotation
														End Site
														{
															OFFSET 0.000000 0.000000 0.000000
														}
													}
												}
											}
										}
										JOINT RightHandRing1
										{
											OFFSET -15.849876 -0.102936 -4.126237
											CHANNELS 3 Xrotation Yrotation Zrotation
											JOINT RightHandRing2
											{
												OFFSET -3.527054 0.000000 0.000000
												CHANNELS 3 Xrotation Yrotation Zrotation
												JOINT RightHandRing3
												{
													OFFSET -2.961098 0.000000 0.000000
													CHANNELS 3 Xrotation Yrotation Zrotation
													JOINT RightHandRing4
													{
														OFFSET -4.927200 0.000000 0.000000
														CHANNELS 3 Xrotation Yrotation Zrotation
														End Site
														{
															OFFSET 0.000000 0.000000 0.000000
														}
													}
												}
											}
										}
										JOINT RightHandPinky1
										{
											OFFSET -12.791786 -0.832077 -6.799222
											CHANNELS 3 Xrotation Yrotation Zrotation
											JOINT RightHandPinky2
											{
												OFFSET -3.327133 0.000000 0.000000
												CHANNELS 3 Xrotation Yrotation Zrotation
												JOINT RightHandPinky3
												{
													OFFSET -3.014900 0.000000 0.000000
													CHANNELS 3 Xrotation Yrotation Zrotation
													JOINT RightHandPinky4
													{
														OFFSET -5.847786 0.000000 0.000000
														CHANNELS 3 Xrotation Yrotation Zrotation
														End Site
														{
															OFFSET 0.000000 0.000000 0.000000
														}
													}
												}
											}
										}
									}
								}
							}
						}
					}
				}
			}
		}
	}
	JOINT LeftUpLeg
	{
		OFFSET 13.026900 -6.336304 -1.092800
		CHANNELS 3 Xrotation Yrotation Zrotation
		JOINT LeftLeg
		{
			OFFSET 0.524474 -46.096886 9.782700
			CHANNELS 3 Xrotation Yrotation Zrotation
			JOINT LeftFoot
			{
				OFFSET -0.524474 -53.427422 -12.948200
				CHANNELS 3 Xrotation Yrotation Zrotation
				JOINT LeftToeBase
				{
					OFFSET 0.192200 -14.009700 16.364100
					CHANNELS 3 Xrotation Yrotation Zrotation
					JOINT LeftToe_End
					{
						OFFSET -1.784700 -0.561700 9.474800
						CHANNELS 3 Xrotation Yrotation Zrotation
						End Site
						{
							OFFSET 0.000000 0.000000 0.000000
						}
					}
				}
			}
		}
	}
	JOINT RightUpLeg
	{
		OFFSET -12.883000 -6.336304 -1.092800
		CHANNELS 3 Xrotation Yrotation Zrotation
		JOINT RightLeg
		{
			OFFSET -0.524587 -46.096825 9.782800
			CHANNELS 3 Xrotation Yrotation Zrotation
			JOINT RightFoot
			{
				OFFSET 0.524587 -53.427383 -12.948300
				CHANNELS 3 Xrotation Yrotation Zrotation
				JOINT RightToeBase
				{
					OFFSET -0.192200 -14.009700 16.364100
					CHANNELS 3 Xrotation Yrotation Zrotation
					JOINT RightToe_End
					{
						OFFSET 1.784700 -0.561700 9.474800
						CHANNELS 3 Xrotation Yrotation Zrotation
						End Site
						{
							OFFSET 0.000000 0.000000 0.000000
						}
					}
				}
			}
		}
	}
}
MOTION
Frames: 4
Frame Time: 0.016667
0.295753 117.674934 -0.697645 -3.415359 3.999790 -5.373529 7.493722 -0.197744 1.396287 -2.114713 -0.634067 1.955412 0.000000 0.000000 0.000000 -2.107417 -0.526124 1.991271 -6.842736 -2.682116 0.508893 2.526784 0.702883 0.466853 0.000000 0.000000 0.000000 1.091369 1.577359 -3.543031 0.000000 0.000000 0.000000 -1.207960 1.492937 -78.012761 20.698677 -13.799232 -0.079262 -0.026783 -3.262849 -0.409704 10.557726 -2.873379 25.085818 -5.464157 26.111892 -7.055825 -6.646966 3.833429 -2.621017 -0.000000 0.000001 0.000002 2.372215 3.636011 -10.145429 -2.155736 2.456262 -20.339709 -1.885484 4.845574 -16.122655 0.000001 0.000001 -0.000001 -1.984299 5.666082 -18.668007 0.262866 5.090456 -32.022447 -0.652729 1.126034 -16.743418 0.000002 -0.000001 -0.000001 -4.974566 10.107092 -16.316133 4.008927 4.056155 -38.803691 2.114509 3.156557 -21.139529 -0.000001 -0.000000 -0.000001 -6.472573 11.328372 -26.083980 10.736397 2.575061 -37.642525 6.431069 3.097697 -18.098620 0.000000 -0.000001 0.000000 0.487466 5.285027 4.298000 0.000000 0.000000 0.000000 -7.282518 4.832117 74.584839 13.988554 13.383128 -4.466992 0.106869 3.530090 -2.699062 15.566064 -0.729112 -16.762771 -6.579425 -24.370064 7.035609 -11.554958 5.741400 5.172649 -0.000000 -0.000001 0.000002 2.252296 -2.297209 4.747734 -2.162968 -2.444714 14.947854 -1.899821 -4.850721 10.729862 -0.000000 -0.000001 -0.000000 -1.986999 -5.675760 8.743278 0.263313 -5.087436 22.099627 -0.663548 -1.134441 6.819829 0.000000 0.000000 0.000001 -4.977277 -10.114503 7.762295 4.005858 -4.045808 30.251038 2.108941 -3.152178 12.586657 -0.000001 0.000000 -0.000001 -6.472725 -11.324481 16.980583 10.704479 -2.553586 28.536090 6.417413 -3.075722 8.993305 -0.000002 0.000001 0.000002 -24.801028 -11.172146 1.531947 48.382775 -1.235210 -0.097430 18.368197 2.947909 10.313002 -24.999032 0.001882 0.001037 0.000001 -0.000001 -0.000001 -11.322408 -10.883135 9.969642 27.335267 0.537869 -0.076453 16.685792 -0.619778 -7.576777 -29.488857 1.225798 0.108400 0.000000 -0.000000 0.000000 
0.461731 118.251732 0.843549 -3.029962 3.380286 -4.665230 7.157719 -0.018305 0.960975 -2.090693 -0.448768 1.814106 0.000000 0.000000 0.000000 -2.078974 -0.346471 1.846579 -6.918093 -2.365406 0.359196 2.758873 0.881739 0.742510 -0.000001 0.000000 0.000000 1.113567 2.099115 -3.775545 0.000000 0.000000 0.000000 -1.049470 1.509236 -77.890787 22.585016 -13.984391 0.425087 -0.073493 -2.782489 -1.181346 10.559567 -2.850869 25.087988 -5.399125 26.208085 -7.056702 -6.608765 3.909418 -2.603670 0.000001 -0.000000 -0.000001 2.371337 3.631462 -10.250473 -2.155566 2.457894 -20.421253 -1.885409 4.845959 -16.204267 0.000000 0.000000 0.000002 -1.983711 5.667495 -18.758729 0.262906 5.090876 -32.139349 -0.652632 1.128113 -16.860310 0.000001 -0.000002 -0.000001 -4.974857 10.106022 -16.411085 4.008883 4.055670 -38.919705 2.115098 3.156116 -21.255530 -0.000000 -0.000000 -0.000000 -6.469983 11.329340 -26.177412 10.735000 2.574671 -37.767203 6.430260 3.097248 -18.223255 0.000000 -0.000001 -0.000001 0.496336 5.504694 4.289108 0.000000 0.000000 0.000000 -7.589868 5.574935 74.483821 15.755882 14.490829 -5.636471 0.036784 2.963948 -2.025681 15.550744 -0.718129 -16.790111 -6.612705 -24.317512 7.035351 -11.558469 5.748778 5.175954 -0.000001 0.000003 -0.000002 2.246690 -2.245056 4.764510 -2.162962 -2.443909 14.905568 -1.901197 -4.850227 10.687518 0.000001 0.000001 0.000001 -1.995188 -5.622326 8.773667 0.264321 -5.087738 22.134524 -0.663600 -1.135046 6.854702 0.000002 0.000001 0.000001 -4.977502 -10.115051 7.789040 4.005077 -4.044423 30.441771 2.109406 -3.150996 12.777413 0.000002 0.000000 0.000000 -6.472017 -11.324896 17.009230 10.695599 -2.560175 28.880137 6.409925 -3.081929 9.336466 -0.000000 0.000001 -0.000000 -26.027944 -9.913605 0.908939 45.062153 -0.765522 -0.061415 18.670906 2.857448 10.105233 -24.999881 0.007773 0.013170 -0.000000 -0.000001 0.000000 -10.231218 -11.253172 9.038709 26.407774 2.031031 0.007792 16.205268 -0.805989 -7.732410 -29.447971 1.197039 0.190692 0.000000 -0.000000 0.000000 
0.610314 119.017021 2.510753 -2.706367 2.885682 -4.132069 6.864129 0.142865 0.795591 -2.080431 -0.313499 1.675652 0.000000 0.000000 0.000000 -2.058833 -0.215386 1.707925 -6.824233 -1.991731 0.148009 2.570388 1.192967 0.558138 -0.000000 0.000000 -0.000000 1.161757 2.620607 -4.138580 0.000000 0.000000 0.000000 -0.675547 1.681686 -77.754020 23.741085 -14.201291 0.898215 -0.068920 -3.014296 -2.607508 10.564697 -2.788199 25.093978 -5.218041 26.476047 -7.060066 -6.502708 4.121095 -2.555638 -0.000000 0.000000 0.000001 2.368898 3.618894 -10.542930 -2.155431 2.457286 -20.648572 -1.885190 4.847061 -16.431483 -0.000000 -0.000001 -0.000003 -1.982014 5.665984 -19.011651 0.263190 5.092151 -32.464770 -0.651850 1.128062 -17.185818 -0.000001 0.000001 -0.000003 -4.975661 10.103258 -16.675526 4.008797 4.054415 -39.242445 2.116757 3.155003 -21.578405 0.000001 0.000002 0.000002 -6.467933 11.326197 -26.437507 10.731171 2.573528 -38.114354 6.428125 3.096105 -18.570186 0.000001 0.000001 0.000000 0.521029 5.806647 4.065538 0.000000 0.000000 0.000000 -8.045853 5.987354 74.740370 12.972012 13.640117 -3.836571 0.904502 8.387703 -8.131724 15.508216 -0.687457 -16.866104 -6.705453 -24.171363 7.034806 -11.568194 5.769273 5.185205 0.000001 0.000001 0.000002 2.231058 -2.099809 4.811186 -2.162873 -2.441595 14.787996 -1.900856 -4.849356 10.569795 0.000004 0.000000 -0.000000 -2.018303 -5.473589 8.858194 0.267203 -5.088505 22.231813 -0.663803 -1.136785 6.951787 -0.000000 0.000000 -0.000000 -4.977011 -10.116606 7.863827 4.003010 -4.040803 30.972562 2.110805 -3.147922 13.308437 -0.000001 0.000001 0.000001 -6.469950 -11.326057 17.089060 10.673236 -2.578289 29.837576 6.390549 -3.099056 10.291603 -0.000002 -0.000002 -0.000000 -26.887378 -8.340102 0.485879 41.141409 -1.042841 -0.079568 18.314295 2.704527 9.124617 -25.000103 0.013627 0.025211 0.000000 -0.000001 0.000000 -8.569131 -11.755832 8.268496 24.715641 3.197391 0.079939 15.835626 -0.837472 -7.695808 -29.284457 1.167298 0.237875 -0.000000 -0.000000 -0.000000 
0.785636 119.612267 4.028593 -2.335889 2.304995 -3.691477 6.704818 0.300351 0.783927 -2.159528 -0.186707 1.502791 0.000000 0.000000 0.000000 -2.121955 -0.096244 1.529946 -6.735155 -1.547358 -0.209004 2.544873 1.437755 0.726827 -0.000000 -0.000000 -0.000000 1.230187 3.222550 -4.608725 0.000000 0.000000 0.000000 -0.356309 1.988794 -77.531957 24.130888 -14.364885 1.193124 -0.087106 -2.860550 -3.564206 10.572528 -2.692711 25.103136 -4.941849 26.884912 -7.067667 -6.341506 4.444066 -2.483261 0.000000 0.000000 0.000000 2.365293 3.599897 -10.988821 -2.155216 2.456404 -20.995071 -1.884894 4.848727 -16.777769 -0.000002 -0.000001 0.000003 -1.979297 5.663884 -19.397193 0.263526 5.094017 -32.960826 -0.650612 1.128068 -17.681978 0.000001 -0.000001 0.000001 -4.973505 10.099541 -17.079228 4.008746 4.052776 -39.734499 2.119426 3.153534 -22.070571 -0.000000 -0.000003 -0.000002 -6.465137 11.321815 -26.833914 10.726123 2.572109 -38.643315 6.425277 3.094572 -19.099016 0.000000 -0.000003 0.000000 0.556173 6.268262 3.845602 0.000000 0.000000 0.000000 -8.206177 7.015578 74.793700 12.132281 14.618270 -3.985072 0.884285 7.994534 -8.002592 15.443488 -0.640637 -16.981966 -6.846848 -23.948655 7.034669 -11.585107 5.800451 5.195340 -0.000001 0.000001 0.000001 2.207216 -1.878354 4.882422 -2.162690 -2.438036 14.608702 -1.900312 -4.847945 10.390383 -0.000001 -0.000000 0.000001 -2.054336 -5.247014 8.987146 0.267253 -5.087487 22.379864 -0.664150 -1.139451 7.099757 -0.000001 0.000000 -0.000000 -4.976069 -10.118970 7.977819 4.000133 -4.036006 31.781703 2.108481 -3.144175 14.117567 0.000003 -0.000001 0.000000 -6.466766 -11.327806 17.210702 10.645751 -2.605217 31.296261 6.365591 -3.124777 11.747166 0.000001 -0.000002 0.000000 -27.681906 -6.586672 0.158346 37.122611 -1.197072 -0.089452 19.285015 2.508292 9.601150 -24.998970 0.019427 0.037147 0.000000 0.000000 -0.000001 -7.158388 -13.326018 7.619992 23.387934 5.489490 0.230298 15.373443 -0.827549 -8.854090 -28.528570 1.136372 0.787005 0.000000 -0.000000 0.000000 
